<?xml version="1.0" standalone="no"?>
<!DOCTYPE svg PUBLIC "-//W3C//DTD SVG 20010904//EN"
 "http://www.w3.org/TR/2001/REC-SVG-20010904/DTD/svg10.dtd">
<svg version="1.0" xmlns="http://www.w3.org/2000/svg"
 width="500.000000pt" height="500.000000pt" viewBox="0 0 500.000000 500.000000"
 preserveAspectRatio="xMidYMid meet">
<metadata>
Created by potrace 1.14, written by Peter Selinger 2001-2017
</metadata>
<g transform="translate(0.000000,500.000000) scale(0.100000,-0.100000)"
fill="#000000" stroke="none">
<path d="M0 2500 l0 -2500 2500 0 2500 0 0 2500 0 2500 -2500 0 -2500 0 0
-2500z m1674 1348 c-3 -13 -22 -56 -40 -97 -29 -63 -51 -91 -137 -175 -193
-188 -306 -365 -392 -611 l-42 -119 -31 30 c-17 17 -36 50 -43 73 -16 55 -5
97 61 237 94 201 244 399 397 526 80 66 211 158 226 158 5 0 5 -10 1 -22z
m1739 -30 c274 -184 489 -466 601 -786 19 -56 38 -124 42 -151 6 -48 6 -49
-32 -75 -21 -14 -44 -26 -51 -26 -7 0 -13 -6 -13 -12 -1 -7 -16 39 -35 102
-107 367 -299 637 -605 851 -47 33 -84 63 -83 66 2 7 96 72 106 72 4 1 36 -18
70 -41z m-1489 -729 c14 -11 33 -34 41 -50 l16 -29 197 0 197 1 26 43 c20 32
36 46 59 51 17 4 34 4 37 1 3 -3 -1 -36 -9 -73 -12 -57 -12 -77 -2 -123 19
-80 18 -90 -10 -90 -31 0 -70 32 -86 70 -12 30 -13 30 -86 30 l-74 0 0 -58 0
-58 51 -13 c64 -17 119 -69 145 -137 15 -42 18 -88 22 -331 l3 -283 -55 0 -55
0 -3 278 c-3 265 -4 279 -26 319 -28 53 -65 73 -134 73 -71 0 -113 -26 -141
-88 -20 -44 -22 -66 -25 -314 l-4 -268 -49 0 -49 0 0 269 c0 224 3 277 17 320
23 72 81 135 146 159 l52 20 0 53 0 54 -72 3 c-71 3 -72 2 -87 -27 -20 -38
-63 -71 -93 -71 -18 0 -23 4 -19 18 25 89 27 129 12 195 -9 38 -16 70 -16 73
0 13 51 1 74 -17z m1086 -193 l0 -93 32 -7 c102 -20 161 -99 180 -241 l12 -85
43 0 c31 0 43 4 43 15 0 8 14 30 31 50 22 25 39 35 60 35 33 0 34 -3 14 -84
-12 -51 -12 -68 0 -120 19 -77 18 -86 0 -86 -32 0 -71 29 -93 69 -21 37 -27
41 -63 41 l-39 0 0 -175 0 -175 -55 0 -55 0 0 253 c0 284 -7 332 -60 382 -29
28 -37 30 -106 30 -74 0 -76 -1 -109 -36 -48 -53 -55 -103 -55 -384 l0 -245
-56 0 -56 0 4 273 c4 253 6 276 27 330 28 72 76 121 141 144 l50 18 0 92 0 93
55 0 55 0 0 -94z m1075 -643 c-17 -146 -102 -402 -149 -448 -11 -11 -53 -40
-140 -97 -42 -27 -72 -36 -61 -18 4 6 10 8 15 5 4 -3 7 1 7 8 -1 6 21 57 49
112 54 104 98 220 130 340 10 39 23 75 29 81 16 16 108 74 119 74 4 0 5 -26 1
-57z m-2984 -213 c17 -52 58 -151 91 -219 l61 -124 -41 -39 c-23 -21 -45 -38
-49 -38 -10 0 -79 111 -116 186 -36 72 -93 241 -112 329 l-15 76 31 27 c18 15
44 35 58 44 l26 17 17 -82 c10 -45 32 -125 49 -177z m1138 -355 c0 -11 -3 -14
-6 -7 -6 17 -33 15 -33 -2 0 -8 7 -16 15 -20 11 -4 15 -19 13 -58 l-2 -53 -3
47 c-7 88 -51 88 -64 0 l-8 -47 3 53 c2 37 9 57 21 66 13 9 15 15 7 20 -7 4
-16 4 -22 1 -5 -3 -10 0 -10 7 0 9 15 13 45 13 39 0 45 -3 44 -20z m571 -5 c0
-10 9 -22 20 -25 11 -4 20 -15 20 -27 0 -11 -8 -22 -20 -25 -13 -4 -21 -15
-21 -32 l-2 -26 -4 28 c-3 19 -10 27 -24 27 -23 0 -36 27 -21 42 7 7 10 5 9
-8 -1 -10 6 -20 16 -22 12 -2 17 3 17 17 0 12 -6 21 -12 22 -10 0 -10 2 0 6
20 8 14 33 -8 33 -11 0 -20 4 -20 9 0 4 11 6 25 3 16 -3 25 -11 25 -22z m-309
-20 c17 0 27 -45 19 -81 -8 -34 -8 -33 -9 12 -1 29 -7 51 -16 59 -23 19 -38 0
-46 -58 l-8 -47 3 51 c2 34 9 57 22 70 13 14 20 16 22 7 2 -7 8 -13 13 -13z
m180 0 c17 0 27 -45 19 -81 -8 -34 -8 -33 -9 12 -1 29 -7 51 -16 59 -23 19
-38 0 -46 -58 l-8 -47 3 51 c2 34 9 57 22 70 13 14 20 16 22 7 2 -7 8 -13 13
-13z m-401 -1 c-9 -15 -8 -24 1 -35 7 -9 8 -14 1 -14 -17 0 -25 39 -12 55 18
21 22 18 10 -6z m35 -72 c-17 -42 -30 -51 -15 -11 6 14 8 30 4 35 -3 5 0 9 5
9 6 0 12 15 13 33 l1 32 4 -30 c2 -17 -3 -47 -12 -68z m55 67 c0 -16 5 -24 13
-21 6 2 12 14 11 26 0 11 3 21 8 21 15 0 8 -48 -8 -54 -27 -10 -32 -7 -36 24
-3 17 -1 30 4 30 4 0 8 -12 8 -26z m1424 -101 c-35 -56 -157 -194 -222 -251
-149 -132 -326 -239 -504 -306 -90 -33 -244 -76 -277 -76 -28 0 12 29 189 136
100 60 191 116 204 124 13 8 45 28 72 44 27 16 59 38 72 49 12 11 22 17 22 14
0 -4 8 0 18 7 9 8 76 56 147 107 72 51 132 95 135 98 3 3 14 11 25 17 49 27
70 39 75 44 8 8 55 28 58 25 2 -2 -4 -16 -14 -32z m-1847 -423 c133 -52 381
-111 468 -111 17 0 16 -4 -10 -25 -56 -46 -118 -84 -138 -84 -112 0 -507 133
-507 171 0 7 98 79 107 79 1 0 37 -14 80 -30z"/>
<path d="M2810 1631 c0 -12 6 -21 16 -21 9 0 14 7 12 17 -5 25 -28 28 -28 4z"/>
</g>
</svg>
